<mxfile host="app.diagrams.net" modified="2022-12-09T01:31:00.074Z" agent="5.0 (Windows NT 10.0; Win64; x64) AppleWebKit/537.36 (KHTML, like Gecko) Chrome/107.0.0.0 Safari/537.36 Edg/107.0.1418.62" etag="21vbn6sms4YbWf8rKIdG" version="20.5.3" type="github">
  <diagram id="prtHgNgQTEPvFCAcTncT" name="Page-1">
    <mxGraphModel dx="1375" dy="754" grid="0" gridSize="10" guides="1" tooltips="1" connect="1" arrows="1" fold="1" page="1" pageScale="1" pageWidth="827" pageHeight="1169" math="0" shadow="0">
      <root>
        <mxCell id="0" />
        <mxCell id="1" parent="0" />
        <mxCell id="dNxyNK7c78bLwvsdeMH5-11" value="T972外围设备" style="swimlane;html=1;startSize=20;horizontal=1;containerType=tree;glass=0;" parent="1" vertex="1">
          <mxGeometry x="16" y="77" width="790" height="365" as="geometry" />
        </mxCell>
        <mxCell id="IXwrkkj6AqFhvnLED8V5-1" value="T972" style="rounded=0;whiteSpace=wrap;html=1;" vertex="1" parent="dNxyNK7c78bLwvsdeMH5-11">
          <mxGeometry x="280" y="40" width="120" height="40" as="geometry" />
        </mxCell>
        <mxCell id="IXwrkkj6AqFhvnLED8V5-2" value="" style="edgeStyle=orthogonalEdgeStyle;rounded=0;orthogonalLoop=1;jettySize=auto;html=1;" edge="1" source="IXwrkkj6AqFhvnLED8V5-1" target="IXwrkkj6AqFhvnLED8V5-3" parent="dNxyNK7c78bLwvsdeMH5-11">
          <mxGeometry relative="1" as="geometry" />
        </mxCell>
        <mxCell id="IXwrkkj6AqFhvnLED8V5-3" value="GPIO[in][out]" style="rounded=0;whiteSpace=wrap;html=1;" vertex="1" parent="dNxyNK7c78bLwvsdeMH5-11">
          <mxGeometry x="200" y="120" width="90" height="40" as="geometry" />
        </mxCell>
        <mxCell id="IXwrkkj6AqFhvnLED8V5-4" value="" style="edgeStyle=orthogonalEdgeStyle;rounded=0;orthogonalLoop=1;jettySize=auto;html=1;" edge="1" source="IXwrkkj6AqFhvnLED8V5-1" target="IXwrkkj6AqFhvnLED8V5-5" parent="dNxyNK7c78bLwvsdeMH5-11">
          <mxGeometry relative="1" as="geometry" />
        </mxCell>
        <mxCell id="IXwrkkj6AqFhvnLED8V5-5" value="PWM风扇[out]" style="rounded=0;whiteSpace=wrap;html=1;" vertex="1" parent="dNxyNK7c78bLwvsdeMH5-11">
          <mxGeometry x="10" y="120" width="80" height="40" as="geometry" />
        </mxCell>
        <mxCell id="IXwrkkj6AqFhvnLED8V5-6" value="" style="edgeStyle=orthogonalEdgeStyle;rounded=0;orthogonalLoop=1;jettySize=auto;html=1;" edge="1" source="IXwrkkj6AqFhvnLED8V5-1" target="IXwrkkj6AqFhvnLED8V5-7" parent="dNxyNK7c78bLwvsdeMH5-11">
          <mxGeometry relative="1" as="geometry" />
        </mxCell>
        <mxCell id="IXwrkkj6AqFhvnLED8V5-21" style="edgeStyle=orthogonalEdgeStyle;rounded=0;orthogonalLoop=1;jettySize=auto;html=1;entryX=0.5;entryY=0;entryDx=0;entryDy=0;" edge="1" parent="dNxyNK7c78bLwvsdeMH5-11" source="IXwrkkj6AqFhvnLED8V5-7" target="IXwrkkj6AqFhvnLED8V5-20">
          <mxGeometry relative="1" as="geometry" />
        </mxCell>
        <mxCell id="IXwrkkj6AqFhvnLED8V5-7" value="PWM背光[out]" style="rounded=0;whiteSpace=wrap;html=1;" vertex="1" parent="dNxyNK7c78bLwvsdeMH5-11">
          <mxGeometry x="100" y="120" width="90" height="40" as="geometry" />
        </mxCell>
        <mxCell id="IXwrkkj6AqFhvnLED8V5-8" value="" style="edgeStyle=orthogonalEdgeStyle;rounded=0;orthogonalLoop=1;jettySize=auto;html=1;" edge="1" source="IXwrkkj6AqFhvnLED8V5-1" target="IXwrkkj6AqFhvnLED8V5-9" parent="dNxyNK7c78bLwvsdeMH5-11">
          <mxGeometry relative="1" as="geometry" />
        </mxCell>
        <mxCell id="IXwrkkj6AqFhvnLED8V5-24" style="edgeStyle=orthogonalEdgeStyle;rounded=0;orthogonalLoop=1;jettySize=auto;html=1;" edge="1" parent="dNxyNK7c78bLwvsdeMH5-11" source="IXwrkkj6AqFhvnLED8V5-9" target="IXwrkkj6AqFhvnLED8V5-23">
          <mxGeometry relative="1" as="geometry" />
        </mxCell>
        <mxCell id="IXwrkkj6AqFhvnLED8V5-9" value="LED" style="rounded=0;whiteSpace=wrap;html=1;" vertex="1" parent="dNxyNK7c78bLwvsdeMH5-11">
          <mxGeometry x="300" y="120" width="90" height="40" as="geometry" />
        </mxCell>
        <mxCell id="IXwrkkj6AqFhvnLED8V5-10" value="" style="edgeStyle=orthogonalEdgeStyle;rounded=0;orthogonalLoop=1;jettySize=auto;html=1;" edge="1" source="IXwrkkj6AqFhvnLED8V5-1" target="IXwrkkj6AqFhvnLED8V5-11" parent="dNxyNK7c78bLwvsdeMH5-11">
          <mxGeometry relative="1" as="geometry" />
        </mxCell>
        <mxCell id="IXwrkkj6AqFhvnLED8V5-25" style="edgeStyle=orthogonalEdgeStyle;rounded=0;orthogonalLoop=1;jettySize=auto;html=1;entryX=0.5;entryY=0;entryDx=0;entryDy=0;" edge="1" parent="dNxyNK7c78bLwvsdeMH5-11" source="IXwrkkj6AqFhvnLED8V5-11" target="IXwrkkj6AqFhvnLED8V5-23">
          <mxGeometry relative="1" as="geometry">
            <Array as="points">
              <mxPoint x="435" y="220" />
              <mxPoint x="295" y="220" />
            </Array>
          </mxGeometry>
        </mxCell>
        <mxCell id="IXwrkkj6AqFhvnLED8V5-38" style="edgeStyle=orthogonalEdgeStyle;rounded=0;orthogonalLoop=1;jettySize=auto;html=1;entryX=0.5;entryY=0;entryDx=0;entryDy=0;" edge="1" parent="dNxyNK7c78bLwvsdeMH5-11" source="IXwrkkj6AqFhvnLED8V5-11" target="IXwrkkj6AqFhvnLED8V5-35">
          <mxGeometry relative="1" as="geometry">
            <Array as="points">
              <mxPoint x="460" y="250" />
              <mxPoint x="570" y="250" />
            </Array>
          </mxGeometry>
        </mxCell>
        <mxCell id="IXwrkkj6AqFhvnLED8V5-11" value="功放" style="rounded=0;whiteSpace=wrap;html=1;" vertex="1" parent="dNxyNK7c78bLwvsdeMH5-11">
          <mxGeometry x="400" y="120" width="70" height="40" as="geometry" />
        </mxCell>
        <mxCell id="IXwrkkj6AqFhvnLED8V5-12" value="" style="edgeStyle=orthogonalEdgeStyle;rounded=0;orthogonalLoop=1;jettySize=auto;html=1;" edge="1" source="IXwrkkj6AqFhvnLED8V5-1" target="IXwrkkj6AqFhvnLED8V5-13" parent="dNxyNK7c78bLwvsdeMH5-11">
          <mxGeometry relative="1" as="geometry" />
        </mxCell>
        <mxCell id="IXwrkkj6AqFhvnLED8V5-26" style="edgeStyle=orthogonalEdgeStyle;rounded=0;orthogonalLoop=1;jettySize=auto;html=1;entryX=0.5;entryY=0;entryDx=0;entryDy=0;" edge="1" parent="dNxyNK7c78bLwvsdeMH5-11" source="IXwrkkj6AqFhvnLED8V5-13" target="IXwrkkj6AqFhvnLED8V5-23">
          <mxGeometry relative="1" as="geometry">
            <Array as="points">
              <mxPoint x="515" y="220" />
              <mxPoint x="295" y="220" />
            </Array>
          </mxGeometry>
        </mxCell>
        <mxCell id="IXwrkkj6AqFhvnLED8V5-13" value="Wifi/BT" style="rounded=0;whiteSpace=wrap;html=1;" vertex="1" parent="dNxyNK7c78bLwvsdeMH5-11">
          <mxGeometry x="480" y="120" width="70" height="40" as="geometry" />
        </mxCell>
        <mxCell id="IXwrkkj6AqFhvnLED8V5-14" value="" style="edgeStyle=orthogonalEdgeStyle;rounded=0;orthogonalLoop=1;jettySize=auto;html=1;" edge="1" source="IXwrkkj6AqFhvnLED8V5-1" target="IXwrkkj6AqFhvnLED8V5-15" parent="dNxyNK7c78bLwvsdeMH5-11">
          <mxGeometry relative="1" as="geometry" />
        </mxCell>
        <mxCell id="IXwrkkj6AqFhvnLED8V5-27" style="edgeStyle=orthogonalEdgeStyle;rounded=0;orthogonalLoop=1;jettySize=auto;html=1;entryX=0.5;entryY=0;entryDx=0;entryDy=0;" edge="1" parent="dNxyNK7c78bLwvsdeMH5-11" source="IXwrkkj6AqFhvnLED8V5-15" target="IXwrkkj6AqFhvnLED8V5-23">
          <mxGeometry relative="1" as="geometry">
            <Array as="points">
              <mxPoint x="600" y="220" />
              <mxPoint x="295" y="220" />
            </Array>
          </mxGeometry>
        </mxCell>
        <mxCell id="IXwrkkj6AqFhvnLED8V5-15" value="DLP/MCU" style="rounded=0;whiteSpace=wrap;html=1;" vertex="1" parent="dNxyNK7c78bLwvsdeMH5-11">
          <mxGeometry x="560" y="120" width="80" height="40" as="geometry" />
        </mxCell>
        <mxCell id="IXwrkkj6AqFhvnLED8V5-16" value="" style="edgeStyle=orthogonalEdgeStyle;rounded=0;orthogonalLoop=1;jettySize=auto;html=1;" edge="1" source="IXwrkkj6AqFhvnLED8V5-1" target="IXwrkkj6AqFhvnLED8V5-17" parent="dNxyNK7c78bLwvsdeMH5-11">
          <mxGeometry relative="1" as="geometry" />
        </mxCell>
        <mxCell id="IXwrkkj6AqFhvnLED8V5-17" value="温度传感器[in]" style="rounded=0;whiteSpace=wrap;html=1;" vertex="1" parent="dNxyNK7c78bLwvsdeMH5-11">
          <mxGeometry x="650" y="120" width="100" height="40" as="geometry" />
        </mxCell>
        <mxCell id="IXwrkkj6AqFhvnLED8V5-19" value="" style="edgeStyle=orthogonalEdgeStyle;rounded=0;orthogonalLoop=1;jettySize=auto;html=1;" edge="1" target="IXwrkkj6AqFhvnLED8V5-20" source="IXwrkkj6AqFhvnLED8V5-5" parent="dNxyNK7c78bLwvsdeMH5-11">
          <mxGeometry relative="1" as="geometry">
            <mxPoint x="320" y="140" as="sourcePoint" />
          </mxGeometry>
        </mxCell>
        <mxCell id="IXwrkkj6AqFhvnLED8V5-20" value="PWM" style="rounded=0;whiteSpace=wrap;html=1;" vertex="1" parent="dNxyNK7c78bLwvsdeMH5-11">
          <mxGeometry x="60" y="280" width="80" height="40" as="geometry" />
        </mxCell>
        <mxCell id="IXwrkkj6AqFhvnLED8V5-22" value="" style="edgeStyle=orthogonalEdgeStyle;rounded=0;orthogonalLoop=1;jettySize=auto;html=1;" edge="1" target="IXwrkkj6AqFhvnLED8V5-23" source="IXwrkkj6AqFhvnLED8V5-3" parent="dNxyNK7c78bLwvsdeMH5-11">
          <mxGeometry relative="1" as="geometry">
            <mxPoint x="380" y="160" as="sourcePoint" />
          </mxGeometry>
        </mxCell>
        <mxCell id="IXwrkkj6AqFhvnLED8V5-23" value="GPIO[in][out]" style="rounded=0;whiteSpace=wrap;html=1;" vertex="1" parent="dNxyNK7c78bLwvsdeMH5-11">
          <mxGeometry x="250" y="280" width="90" height="40" as="geometry" />
        </mxCell>
        <mxCell id="IXwrkkj6AqFhvnLED8V5-29" value="" style="edgeStyle=orthogonalEdgeStyle;rounded=0;orthogonalLoop=1;jettySize=auto;html=1;" edge="1" target="IXwrkkj6AqFhvnLED8V5-30" source="IXwrkkj6AqFhvnLED8V5-17" parent="dNxyNK7c78bLwvsdeMH5-11">
          <mxGeometry relative="1" as="geometry">
            <mxPoint x="440" y="140" as="sourcePoint" />
          </mxGeometry>
        </mxCell>
        <mxCell id="IXwrkkj6AqFhvnLED8V5-30" value="SAR" style="rounded=0;whiteSpace=wrap;html=1;" vertex="1" parent="dNxyNK7c78bLwvsdeMH5-11">
          <mxGeometry x="650" y="280" width="100" height="40" as="geometry" />
        </mxCell>
        <mxCell id="IXwrkkj6AqFhvnLED8V5-32" value="I2S" style="rounded=0;whiteSpace=wrap;html=1;" vertex="1" parent="dNxyNK7c78bLwvsdeMH5-11">
          <mxGeometry x="390" y="280" width="90" height="40" as="geometry" />
        </mxCell>
        <mxCell id="IXwrkkj6AqFhvnLED8V5-34" value="" style="edgeStyle=orthogonalEdgeStyle;rounded=0;orthogonalLoop=1;jettySize=auto;html=1;" edge="1" target="IXwrkkj6AqFhvnLED8V5-35" source="IXwrkkj6AqFhvnLED8V5-15" parent="dNxyNK7c78bLwvsdeMH5-11">
          <mxGeometry relative="1" as="geometry">
            <mxPoint x="440" y="140" as="sourcePoint" />
            <Array as="points">
              <mxPoint x="620" y="250" />
              <mxPoint x="570" y="250" />
            </Array>
          </mxGeometry>
        </mxCell>
        <mxCell id="IXwrkkj6AqFhvnLED8V5-35" value="I2C" style="rounded=0;whiteSpace=wrap;html=1;" vertex="1" parent="dNxyNK7c78bLwvsdeMH5-11">
          <mxGeometry x="530" y="280" width="80" height="40" as="geometry" />
        </mxCell>
        <mxCell id="IXwrkkj6AqFhvnLED8V5-39" value="" style="shape=flexArrow;endArrow=classic;html=1;rounded=0;width=11;endSize=5.33;entryX=0.333;entryY=0.025;entryDx=0;entryDy=0;entryPerimeter=0;fillColor=#f5f5f5;strokeColor=#666666;" edge="1" parent="dNxyNK7c78bLwvsdeMH5-11" target="IXwrkkj6AqFhvnLED8V5-32">
          <mxGeometry width="50" height="50" relative="1" as="geometry">
            <mxPoint x="420" y="160" as="sourcePoint" />
            <mxPoint x="400" y="280" as="targetPoint" />
          </mxGeometry>
        </mxCell>
      </root>
    </mxGraphModel>
  </diagram>
</mxfile>
